<?xml version="1.0" encoding="UTF-8"?>
<svg viewBox="0 0 380 290" xmlns="http://www.w3.org/2000/svg" xmlns:xlink="http://www.w3.org/1999/xlink">
 <defs>
  <linearGradient id="a">
   <stop stop-color="#b3b3b3" offset="0"/>
   <stop stop-color="#b3b3b3" stop-opacity="0" offset="1"/>
  </linearGradient>
  <linearGradient id="f" x1="277.73" x2="427.34" gradientUnits="userSpaceOnUse">
   <stop stop-color="#fff" offset="0"/>
   <stop stop-color="#fff" stop-opacity="0" offset="1"/>
  </linearGradient>
  <radialGradient id="b" cx="270.58" cy="378.09" r="72.842" gradientTransform="matrix(1 0 0 .5693 0 177.43)" gradientUnits="userSpaceOnUse">
   <stop stop-color="#ccc" offset="0"/>
   <stop stop-color="#ccc" stop-opacity="0" offset="1"/>
  </radialGradient>
  <radialGradient id="e" cx="354.21" cy="461.99" r="10.971" gradientUnits="userSpaceOnUse" xlink:href="#a"/>
  <radialGradient id="d" cx="408.54" cy="375.88" r="8.0469" gradientTransform="matrix(1 0 0 1.4233 0 -161.98)" gradientUnits="userSpaceOnUse" xlink:href="#a"/>
  <radialGradient id="c" cx="300.63" cy="461.99" r="10.971" gradientUnits="userSpaceOnUse" xlink:href="#a"/>
 </defs>
 <g transform="matrix(2.2248 0 0 2.2248 -587.54 -802.88)">
  <path d="m413.02 368.49c-1.2581-0.00131-2.5534 0.68456-3.6552 2.7555l-7.9572 19.626c-0.09528-0.00601-0.18433-0.02811-0.28117-0.02811h-117.98c-1.0603 0.04708-2.1163-0.00635-3.1772 0.05623-1.2782 0.38298-2.0173 1.7314-1.6308 3.0085 0.36134 1.4297 0.48574 2.7668 1.2372 4.077l16.617 54.913c-0.10205 1.911-0.24678 3.3178 1.8276 3.3178h0.47799c0.33555 0.07372 0.68606 0.05154 1.0403-0.02812l81.652-0.84351c0.95115 0 1.0398-0.16553 0.78728-0.50611 0.63354-0.20004 1.1959-0.63773 1.4902-1.2934l25.952-57.809c0.10444-0.23267 0.14086-0.49128 0.1687-0.73105l6.0733-13.524 5.4829 5.7921c0.54646 1.2173 1.9584 1.7521 3.1772 1.209s2.9645-6.5992 2.4181-7.8166c-3.9367-3.0883-6.0544-8.5504-10.431-10.938-0.92247-0.5922-2.0759-1.2359-3.2897-1.2372zm-122.79 31.294h106.73l-4.9486 12.231c-0.57359-0.26717-1.2072-0.42176-1.8838-0.42176h-96.807l-3.0929-11.809zm5.4547 20.722h92.871l-3.6271 8.9413h-86.882l-2.3618-8.9413zm4.6956 17.854h80.949l-3.4865 8.5476c-0.04386 0.09771-0.04041 0.23873-0.05623 0.39364h-75.045l-2.3618-8.9413zm11.387 19.148c-6.7332 0-12.203 5.6029-12.203 12.512s5.4697 12.512 12.203 12.512 12.175-5.6029 12.175-12.512-5.4416-12.512-12.175-12.512zm53.563 0c-6.7332 0-12.203 5.6029-12.203 12.512s5.4697 12.512 12.203 12.512 12.203-5.6029 12.203-12.512-5.4697-12.512-12.203-12.512z" fill="#4d4d4d" stroke="url(#f)" stroke-linecap="round" stroke-width="2"/>
  <path d="m413.03 370.5c-1.2581-0.00132-2.5544 2.6791-3.6562 4.75l-1.0625 2.9375c2.3047 0.51408 4.5478 1.1586 6.7188 1.9375l0.125-0.25 0.40625 0.46875c3.3664 1.2487 6.5582 2.8006 9.5312 4.6875 0.61857-1.5664 1.0413-3.4689 0.71875-4.1875l-6.5938-6.4375c-0.13011-0.61424-0.50709-1.1773-1.0625-1.5312-0.59892-0.65469-1.211-1.0037-1.8438-1.1562-0.92246-0.59221-2.0674-1.2175-3.2812-1.2188zm-68.062 22.219-61.812 0.125c-0.18629 1e-5 -0.38233 0.04055-0.5625 0.0625-1.9714-0.37501-1.5652 0.17963-2.25 1 0.36071 1.4321 0.54776 2.7476 1.2188 4.0938l16.625 52.906c-0.05638 1.0558-0.11145 1.9355 0.1875 2.5312 0.97903-3.2088 2.1232-6.4131 3.4688-9.5938l-1.4688-5.4688h3.9688c1.4826-3.0094 3.1095-6.0106 4.9062-8.9375h-11.219l-2.3438-8.9375h19.688c2.2988-3.0546 4.7668-6.0361 7.4062-8.9062h-29.469l-3.0938-11.812h45.125c1.9381-1.5729 3.9441-3.1013 6-4.5625 1.2118-0.86125 2.4024-1.6996 3.625-2.5z" fill="url(#b)"/>
  <path d="m416.16 378.67c-2.5949 0.13951-4.2705 3.1749-6.2156 5.8634-3.3604 4.6447-16.872 42.126-24.015 46.412-6.1482 3.6889-0.76577 2.3844-11.188 7.4062h6.0938l-3.5 8.5625c-0.04386 0.09774-0.04668 0.22009-0.0625 0.375h-24.531c-12.894 4.1167-23.973 5.7812-28.594 5.7812-1.5529-1e-5 -3.978 0.37856-6.75 0.9375l61.281-0.65625c0.95115 1e-5 1.0337-0.15942 0.78125-0.5 0.63354-0.20004 1.2057-0.65684 1.5-1.3125l25.938-55.812c0.10444-0.23266 0.47216-0.57273 0.5-0.8125l8.197-14.652 5.6537 5.9962c0.54645 1.2173 1.3749 2.1425 2.5938 1.5995 0.85545-0.38117 1.6456-2.861 1.9668-4.6881-0.04515-0.15698-0.01672-0.26834 0.0625-0.375 0.04401-0.33669 0.4258-0.58351 0.41005-0.84312-0.47181-0.37037-2.4964-1.4861-5.0089-2.4432-2.8125-1.0714-3.556-0.92175-5.1129-0.83804z" fill="#333" opacity=".5"/>
  <path d="m311.62 458.59c-6.0605-1e-5 -11 5.031-11 11.25-1e-5 4.8945 3.0591 9.0412 7.3125 10.594-1.8684-2.019-3.0312-4.7481-3.0312-7.75 0-6.219 4.9395-11.25 11-11.25 1.2866 0 2.5102 0.2387 3.6562 0.65625-1.9956-2.1609-4.8047-3.5-7.9375-3.5z" fill="url(#c)"/>
  <path d="m413 371.2c-1.2581-0.0013-2.5544 2.6791-3.6562 4.75l-6 16.5c0.49311 0.48026 0.92552 1.0417 1.25 1.6562 1.4056-10.037 7.4179-17.786 14.844-18.781l-0.21875-0.21875c-0.13011-0.61424-0.50709-1.146-1.0625-1.5-0.59893-0.65469-1.211-1.0037-1.8438-1.1562-0.92247-0.59219-2.0987-1.2488-3.3125-1.25z" fill="url(#d)"/>
  <path d="m365.2 458.59c-6.0605-1e-5 -11 5.031-11 11.25-1e-5 4.8945 3.0591 9.0412 7.3125 10.594-1.8684-2.019-3.0312-4.7481-3.0312-7.75 0-6.219 4.9395-11.25 11-11.25 1.2866 0 2.5102 0.2387 3.6562 0.65625-1.9956-2.1609-4.8047-3.5-7.9375-3.5z" fill="url(#e)"/>
 </g>
</svg>
